<svg id="Layer_1" data-name="Layer 1" xmlns="http://www.w3.org/2000/svg" xmlns:xlink="http://www.w3.org/1999/xlink" viewBox="0 0 96 96"><defs><style>.cls-1{fill:none;}.cls-2{fill:#0072c6;}.cls-3{clip-path:url(#clip-path);}.cls-4,.cls-5{fill:#fff;}.cls-4{fill-rule:evenodd;}</style><clipPath id="clip-path"><rect class="cls-1" width="96" height="96"/></clipPath></defs><rect class="cls-2" width="96" height="96"/><g class="cls-3"><path class="cls-4" d="M19.84,25.56V70l34.42,5.83V19.7ZM45.53,50.92A16.14,16.14,0,0,1,45,53.45a12.7,12.7,0,0,1-1,2.22,11.43,11.43,0,0,1-1.34,1.9A10.18,10.18,0,0,1,41,59.06a8.45,8.45,0,0,1-1.83,1,8.92,8.92,0,0,1-2,.56,10.52,10.52,0,0,1-1.51.11l-.66,0A11.33,11.33,0,0,1,33,60.4a9,9,0,0,1-1.85-.73,9.3,9.3,0,0,1-1.62-1.11,10.46,10.46,0,0,1-1.41-1.48,11.72,11.72,0,0,1-1.14-1.81,11.41,11.41,0,0,1-.81-2A14.46,14.46,0,0,1,25.63,51a19.7,19.7,0,0,1-.15-2.46A21,21,0,0,1,25.63,46a17.62,17.62,0,0,1,.47-2.32,12.73,12.73,0,0,1,.8-2.09A11.57,11.57,0,0,1,28,39.74a10.16,10.16,0,0,1,1.45-1.6,8.74,8.74,0,0,1,3.66-2,10.84,10.84,0,0,1,2.22-.36l.65,0a10.17,10.17,0,0,1,1.47.11,8.91,8.91,0,0,1,1.95.54,8,8,0,0,1,1.78,1,10.63,10.63,0,0,1,1.57,1.45,11.4,11.4,0,0,1,2.22,4,15,15,0,0,1,.55,2.46,18.46,18.46,0,0,1,.19,2.75,19.67,19.67,0,0,1-.19,2.83"/><path class="cls-4" d="M39.72,45.08a7.85,7.85,0,0,0-.44-1.32,6.35,6.35,0,0,0-.6-1.09,4.36,4.36,0,0,0-.71-.82,3.39,3.39,0,0,0-.8-.56,3.51,3.51,0,0,0-.91-.32,3.8,3.8,0,0,0-.84-.08h-.18a4.21,4.21,0,0,0-1.08.17,3.64,3.64,0,0,0-.95.41,4.3,4.3,0,0,0-.82.67,5.21,5.21,0,0,0-.71.92,9.11,9.11,0,0,0-.55,1.08,8.44,8.44,0,0,0-.38,1.23,10.1,10.1,0,0,0-.24,1.38,15,15,0,0,0-.08,1.55,14.23,14.23,0,0,0,.09,1.64,10.28,10.28,0,0,0,.26,1.46,7.18,7.18,0,0,0,.43,1.26,5.9,5.9,0,0,0,.6,1.08,5.63,5.63,0,0,0,.69.81,4.26,4.26,0,0,0,.78.58,3.71,3.71,0,0,0,.87.36,3.79,3.79,0,0,0,1,.15h.19a3.83,3.83,0,0,0,.83-.08,3.22,3.22,0,0,0,.91-.29,4.3,4.3,0,0,0,.81-.52A4.87,4.87,0,0,0,38.6,54a5.5,5.5,0,0,0,.63-1.06,6.9,6.9,0,0,0,.46-1.28A9.64,9.64,0,0,0,40,50.13a13.22,13.22,0,0,0,.1-1.73A16.49,16.49,0,0,0,40,46.63a12.85,12.85,0,0,0-.26-1.55"/><polygon class="cls-5" points="56.35 26.72 56.35 33.73 76.16 33.73 76.16 67.81 56.35 67.81 56.35 69.82 78.25 69.82 78.25 26.72 56.35 26.72"/><rect class="cls-5" x="67.82" y="35.74" width="6.26" height="6.01"/><rect class="cls-5" x="59.48" y="35.74" width="6.26" height="6.01"/><rect class="cls-5" x="56.41" y="35.74" width="0.98" height="6.01"/><rect class="cls-5" x="67.82" y="43.76" width="6.26" height="6.01"/><rect class="cls-5" x="59.48" y="43.76" width="6.26" height="6.01"/><rect class="cls-5" x="56.41" y="43.76" width="0.98" height="6.01"/><rect class="cls-5" x="67.82" y="51.78" width="6.26" height="6.01"/><rect class="cls-5" x="59.48" y="51.78" width="6.26" height="6.01"/><rect class="cls-5" x="56.41" y="51.78" width="0.98" height="6.01"/><rect class="cls-5" x="59.48" y="59.79" width="6.26" height="6.01"/><rect class="cls-5" x="56.41" y="59.79" width="0.98" height="6.01"/></g></svg>